# xmcd
#
# Track frame offsets:
# 150
# 15654
# 31889
# 46942
# 59414
# 73301
# 86921
# 103685
# 120545
# 131968
# 148105
# 167313
# 178538
# 196189
# 211799
# 228777
#
# Disc length: 3231 seconds
#
#
# Revision: 0
# Processed by: cddbd v1.5.2PL0 Copyright (c) Steve Scherf et al.
# Submitted via: FreeRIP 2.944 
#
DISCID=dc0c9d10
DTITLE=Varios - Seleção de Ouro da Musica Sertaneja
DYEAR=2006
DGENRE=Country
TTITLE0=Desespero de Uuma Noite - Miranda
TTITLE1=Coração na Contra Mão - Zezé Di Camargo and Luciano
TTITLE2=Entre Tapas e Beijos - Leandro and Leonardo
TTITLE3=Espuma da Cerveja - Gian and Giovani
TTITLE4=Amargurado - Tão Carreiro and Pardinho
TTITLE5=Aline - João Mineiro and Marciano
TTITLE6=Massa Falida - Duduca and Dalvan
TTITLE7=Casa Bonita - Amado Batista
TTITLE8=Assino com X - Gilberto and Gilmar
TTITLE9=Muleca - Rick and Renner
TTITLE10=Laço Aberto - Ataíde and Alexandre
TTITLE11=Garanhão da Madrugada - Teodoro and Sampaio
TTITLE12=Boboca e Bobão - Cezar and Paulinho
TTITLE13=Dormi na Praça - Bruno and Marrone
TTITLE14=Herói da Velocidade - Milionário and José Rico
TTITLE15=Tapete Colorido - Trio Parada Dura
EXTD=E.O.Café
EXTT0=
EXTT1=
EXTT2=
EXTT3=
EXTT4=
EXTT5=
EXTT6=
EXTT7=
EXTT8=
EXTT9=
EXTT10=
EXTT11=
EXTT12=
EXTT13=
EXTT14=
EXTT15=
PLAYORDER=
